# xmcd
#
# Track frame offsets:
#   150
#   14705
#   30828
#   46377
#   60942
#   75001
#   92372
#   107814
#   123008
#   138296
#   154132
#   167543
#   182842
#   199536
#   215399
#   231426
#   248827
#   260566
#   275183
#   290348
#   304650
#   317471
#   330230
#   343865
#
# Disc length: 4748 seconds
#
# Revision: 0
# Processed by: cddbd v1.5.1PL2 Copyright (c) Steve Scherf et al.
# Submitted via: GXTranscoder 2.0.1939
#
DISCID=3d128a18
DTITLE=palomo - exitos
DYEAR=1900
DGENRE=Country
TTITLE0=
TTITLE1=miedo
TTITLE2=llevate
TTITLE3=tu mi fiel amante
TTITLE4=mi tristeza
TTITLE5=yo te propongo
TTITLE6=la mujer perfecta
TTITLE7=como un titere
TTITLE8=no me mires asi
TTITLE9=desde un rincon
TTITLE10=para conquistarte
TTITLE11=maldita soledad
TTITLE12=no me conoces aun
TTITLE13=hazle el amor a mi corazon
TTITLE14=nos falto
TTITLE15=de uno y de todos los modos
TTITLE16=a cambio de que
TTITLE17=mas alla de todo
TTITLE18=intente olvidarte
TTITLE19=te metiste en mi cama
TTITLE20=me quedare
TTITLE21=dejame ser
TTITLE22=lo prohibido del amor
TTITLE23=escuchame
EXTD=
EXTT0=
EXTT1=
EXTT2=
EXTT3=
EXTT4=
EXTT5=
EXTT6=
EXTT7=
EXTT8=
EXTT9=
EXTT10=
EXTT11=
EXTT12=
EXTT13=
EXTT14=
EXTT15=
EXTT16=
EXTT17=
EXTT18=
EXTT19=
EXTT20=
EXTT21=
EXTT22=
EXTT23=
PLAYORDER=
